%TF.GenerationSoftware,KiCad,Pcbnew,5.1.9*%
%TF.CreationDate,2020-12-30T12:44:33+01:00*%
%TF.ProjectId,afterglow_replay,61667465-7267-46c6-9f77-5f7265706c61,rev?*%
%TF.SameCoordinates,Original*%
%TF.FileFunction,Paste,Bot*%
%TF.FilePolarity,Positive*%
%FSLAX46Y46*%
G04 Gerber Fmt 4.6, Leading zero omitted, Abs format (unit mm)*
G04 Created by KiCad (PCBNEW 5.1.9) date 2020-12-30 12:44:33*
%MOMM*%
%LPD*%
G01*
G04 APERTURE LIST*
%ADD10R,1.500000X1.900000*%
%ADD11R,0.400000X1.350000*%
%ADD12R,1.250000X1.500000*%
%ADD13R,1.450000X1.000000*%
%ADD14R,1.500000X1.300000*%
%ADD15R,1.900000X0.800000*%
%ADD16R,1.500000X0.600000*%
%ADD17R,2.500000X3.325000*%
%ADD18R,1.700000X0.650000*%
%ADD19R,0.550000X1.600000*%
%ADD20R,1.600000X0.550000*%
G04 APERTURE END LIST*
D10*
%TO.C,USB PWR*%
X132400000Y-46050000D03*
D11*
X133400000Y-48750000D03*
X134050000Y-48750000D03*
X134700000Y-48750000D03*
X132100000Y-48750000D03*
X132750000Y-48750000D03*
D10*
X134400000Y-46050000D03*
%TD*%
D12*
%TO.C,C3*%
X146700000Y-66050000D03*
X146700000Y-63550000D03*
%TD*%
%TO.C,C4*%
X148700000Y-70850000D03*
X148700000Y-68350000D03*
%TD*%
D13*
%TO.C,RST*%
X144325000Y-147600000D03*
X139175000Y-147600000D03*
X139175000Y-145900000D03*
X144325000Y-145900000D03*
%TD*%
D14*
%TO.C,R12*%
X131950000Y-101700000D03*
X134650000Y-101700000D03*
%TD*%
%TO.C,R11*%
X145950000Y-101700000D03*
X148650000Y-101700000D03*
%TD*%
%TO.C,R10*%
X131950000Y-86700000D03*
X134650000Y-86700000D03*
%TD*%
%TO.C,R9*%
X145950000Y-86700000D03*
X148650000Y-86700000D03*
%TD*%
%TO.C,R8*%
X118950000Y-86700000D03*
X121650000Y-86700000D03*
%TD*%
%TO.C,R7*%
X131950000Y-117800000D03*
X134650000Y-117800000D03*
%TD*%
%TO.C,R6*%
X118950000Y-101700000D03*
X121650000Y-101700000D03*
%TD*%
%TO.C,R5*%
X145950000Y-117700000D03*
X148650000Y-117700000D03*
%TD*%
D15*
%TO.C,Q8*%
X134800000Y-98700000D03*
X131800000Y-97750000D03*
X131800000Y-99650000D03*
%TD*%
%TO.C,Q7*%
X148800000Y-98700000D03*
X145800000Y-97750000D03*
X145800000Y-99650000D03*
%TD*%
%TO.C,Q6*%
X134800000Y-83700000D03*
X131800000Y-82750000D03*
X131800000Y-84650000D03*
%TD*%
%TO.C,Q5*%
X148800000Y-83700000D03*
X145800000Y-82750000D03*
X145800000Y-84650000D03*
%TD*%
%TO.C,Q4*%
X121800000Y-83700000D03*
X118800000Y-82750000D03*
X118800000Y-84650000D03*
%TD*%
%TO.C,Q3*%
X134800000Y-114800000D03*
X131800000Y-113850000D03*
X131800000Y-115750000D03*
%TD*%
%TO.C,Q2*%
X121800000Y-98700000D03*
X118800000Y-97750000D03*
X118800000Y-99650000D03*
%TD*%
%TO.C,Q1*%
X148800000Y-114700000D03*
X145800000Y-113750000D03*
X145800000Y-115650000D03*
%TD*%
D16*
%TO.C,U2*%
X119900000Y-74345000D03*
X119900000Y-73075000D03*
X119900000Y-71805000D03*
X119900000Y-70535000D03*
X119900000Y-69265000D03*
X119900000Y-67995000D03*
X119900000Y-66725000D03*
X119900000Y-65455000D03*
X114500000Y-65455000D03*
X114500000Y-66725000D03*
X114500000Y-67995000D03*
X114500000Y-69265000D03*
X114500000Y-70535000D03*
X114500000Y-71805000D03*
X114500000Y-73075000D03*
X114500000Y-74345000D03*
%TD*%
D14*
%TO.C,R4*%
X131650000Y-143000000D03*
X134350000Y-143000000D03*
%TD*%
%TO.C,R3*%
X115750000Y-58600000D03*
X118450000Y-58600000D03*
%TD*%
%TO.C,R2*%
X135950000Y-51800000D03*
X133250000Y-51800000D03*
%TD*%
%TO.C,D1*%
X134350000Y-146000000D03*
X131650000Y-146000000D03*
%TD*%
D17*
%TO.C,Y1*%
X152100000Y-70012500D03*
X152100000Y-64187500D03*
%TD*%
D18*
%TO.C,U4*%
X148350000Y-53705000D03*
X148350000Y-52435000D03*
X148350000Y-51165000D03*
X148350000Y-49895000D03*
X141050000Y-49895000D03*
X141050000Y-51165000D03*
X141050000Y-52435000D03*
X141050000Y-53705000D03*
%TD*%
D19*
%TO.C,U1*%
X142900000Y-62550000D03*
X142100000Y-62550000D03*
X141300000Y-62550000D03*
X140500000Y-62550000D03*
X139700000Y-62550000D03*
X138900000Y-62550000D03*
X138100000Y-62550000D03*
X137300000Y-62550000D03*
D20*
X135850000Y-64000000D03*
X135850000Y-64800000D03*
X135850000Y-65600000D03*
X135850000Y-66400000D03*
X135850000Y-67200000D03*
X135850000Y-68000000D03*
X135850000Y-68800000D03*
X135850000Y-69600000D03*
D19*
X137300000Y-71050000D03*
X138100000Y-71050000D03*
X138900000Y-71050000D03*
X139700000Y-71050000D03*
X140500000Y-71050000D03*
X141300000Y-71050000D03*
X142100000Y-71050000D03*
X142900000Y-71050000D03*
D20*
X144350000Y-69600000D03*
X144350000Y-68800000D03*
X144350000Y-68000000D03*
X144350000Y-67200000D03*
X144350000Y-66400000D03*
X144350000Y-65600000D03*
X144350000Y-64800000D03*
X144350000Y-64000000D03*
%TD*%
D14*
%TO.C,R1*%
X140650000Y-143000000D03*
X143350000Y-143000000D03*
%TD*%
D12*
%TO.C,C5*%
X153400000Y-50450000D03*
X153400000Y-52950000D03*
%TD*%
%TO.C,C1*%
X129900000Y-67150000D03*
X129900000Y-69650000D03*
%TD*%
M02*
