M48
INCH,TZ
T1C0.0157
T2C0.0236
T3C0.0315
T4C0.0335
T5C0.0394
T6C0.1260
%
G90
G05
T1
X44508Y-35217
X45623Y-27205
X45923Y-26380
X45997Y-40063
X46556Y-37806
X46605Y-27540
X46682Y-36633
X47462Y-42106
X47562Y-42635
X47961Y-43974
X47994Y-41041
X48033Y-35760
X48283Y-44370
X48339Y-49176
X48423Y-47951
X48505Y-36984
X48784Y-32805
X49254Y-26562
X49325Y-35056
X49478Y-50138
X49612Y-40441
X50021Y-26235
X50039Y-19370
X50128Y-45460
X50180Y-43714
X50192Y-27810
X50476Y-26807
X50630Y-33238
X50669Y-50630
X51177Y-44001
X51326Y-25725
X51523Y-42183
X51580Y-35418
X51586Y-41041
X51772Y-20354
X52162Y-43649
X52449Y-26493
X52617Y-55806
X52794Y-36914
X53175Y-49389
X53195Y-38044
X53238Y-43422
X53810Y-34523
X53894Y-46288
X53930Y-41615
X53964Y-44752
X53989Y-33871
X54370Y-36496
X54370Y-38346
X54406Y-22538
X54771Y-20925
X54779Y-29099
X54930Y-32422
X55065Y-27264
X55071Y-38237
X55270Y-40721
X55331Y-32455
X55386Y-25768
X55556Y-25189
X55768Y-31349
X55984Y-27283
X56043Y-25668
X56616Y-27998
X56645Y-24811
X56783Y-28372
X56931Y-42074
X57079Y-24682
X57425Y-28557
X57836Y-40713
X58015Y-33276
X58305Y-40549
X58344Y-25739
X58598Y-36914
X58703Y-38034
X58749Y-44217
X59036Y-45591
X59153Y-33310
X59336Y-39321
X60346Y-29509
T3
X49724Y-29961
X50512Y-29961
T4
X51535Y-19193
X53504Y-19193
T5
X45276Y-55874
X45276Y-56874
X45276Y-57874
X46276Y-55874
X46276Y-56874
X46276Y-57874
X48917Y-56874
X48917Y-57874
X59055Y-56693
X59055Y-57693
T6
X44094Y-18110
X44094Y-59449
X61063Y-18110
X61063Y-59449
T2
G00X51142Y-18268
M15
G01X51142Y-17992
M16
G05
G00X53898Y-17992
M15
G01X53898Y-18268
M16
G05
T0
M30
