%TF.GenerationSoftware,KiCad,Pcbnew,5.1.9*%
%TF.CreationDate,2021-02-07T10:05:35+01:00*%
%TF.ProjectId,afterglow_replay,61667465-7267-46c6-9f77-5f7265706c61,rev?*%
%TF.SameCoordinates,Original*%
%TF.FileFunction,Paste,Top*%
%TF.FilePolarity,Positive*%
%FSLAX46Y46*%
G04 Gerber Fmt 4.6, Leading zero omitted, Abs format (unit mm)*
G04 Created by KiCad (PCBNEW 5.1.9) date 2021-02-07 10:05:35*
%MOMM*%
%LPD*%
G01*
G04 APERTURE LIST*
%ADD10R,1.500000X1.300000*%
%ADD11C,0.100000*%
%ADD12R,1.300000X1.500000*%
G04 APERTURE END LIST*
D10*
%TO.C,D88*%
X121450000Y-150900000D03*
X118750000Y-150900000D03*
%TD*%
D11*
%TO.C,D87*%
G36*
X122887917Y-95055385D02*
G01*
X121762083Y-95705385D01*
X121012083Y-94406347D01*
X122137917Y-93756347D01*
X122887917Y-95055385D01*
G37*
G36*
X124237917Y-97393653D02*
G01*
X123112083Y-98043653D01*
X122362083Y-96744615D01*
X123487917Y-96094615D01*
X124237917Y-97393653D01*
G37*
%TD*%
%TO.C,D86*%
G36*
X134305588Y-72613871D02*
G01*
X133083988Y-73058498D01*
X132570958Y-71648959D01*
X133792558Y-71204332D01*
X134305588Y-72613871D01*
G37*
G36*
X135229042Y-75151041D02*
G01*
X134007442Y-75595668D01*
X133494412Y-74186129D01*
X134716012Y-73741502D01*
X135229042Y-75151041D01*
G37*
%TD*%
%TO.C,D85*%
G36*
X147251601Y-106824185D02*
G01*
X146255743Y-105988561D01*
X147219925Y-104839495D01*
X148215783Y-105675119D01*
X147251601Y-106824185D01*
G37*
G36*
X145516075Y-108892505D02*
G01*
X144520217Y-108056881D01*
X145484399Y-106907815D01*
X146480257Y-107743439D01*
X145516075Y-108892505D01*
G37*
%TD*%
%TO.C,D84*%
G36*
X145968311Y-101661596D02*
G01*
X144701630Y-101369159D01*
X145039057Y-99907604D01*
X146305738Y-100200041D01*
X145968311Y-101661596D01*
G37*
G36*
X145360943Y-104292396D02*
G01*
X144094262Y-103999959D01*
X144431689Y-102538404D01*
X145698370Y-102830841D01*
X145360943Y-104292396D01*
G37*
%TD*%
%TO.C,D83*%
G36*
X147944314Y-96921987D02*
G01*
X146664064Y-96696244D01*
X146924536Y-95219033D01*
X148204786Y-95444776D01*
X147944314Y-96921987D01*
G37*
G36*
X147475464Y-99580967D02*
G01*
X146195214Y-99355224D01*
X146455686Y-97878013D01*
X147735936Y-98103756D01*
X147475464Y-99580967D01*
G37*
%TD*%
D10*
%TO.C,D82*%
X150000000Y-92400000D03*
X147300000Y-92400000D03*
%TD*%
D12*
%TO.C,D81*%
X149500000Y-85950000D03*
X149500000Y-88650000D03*
%TD*%
%TO.C,D78*%
X126300000Y-117550000D03*
X126300000Y-120250000D03*
%TD*%
%TO.C,D77*%
X124000000Y-117550000D03*
X124000000Y-120250000D03*
%TD*%
%TO.C,D76*%
X121800000Y-117550000D03*
X121800000Y-120250000D03*
%TD*%
D11*
%TO.C,D75*%
G36*
X118062917Y-105555385D02*
G01*
X116937083Y-106205385D01*
X116187083Y-104906347D01*
X117312917Y-104256347D01*
X118062917Y-105555385D01*
G37*
G36*
X119412917Y-107893653D02*
G01*
X118287083Y-108543653D01*
X117537083Y-107244615D01*
X118662917Y-106594615D01*
X119412917Y-107893653D01*
G37*
%TD*%
%TO.C,D74*%
G36*
X119662917Y-102455385D02*
G01*
X118537083Y-103105385D01*
X117787083Y-101806347D01*
X118912917Y-101156347D01*
X119662917Y-102455385D01*
G37*
G36*
X121012917Y-104793653D02*
G01*
X119887083Y-105443653D01*
X119137083Y-104144615D01*
X120262917Y-103494615D01*
X121012917Y-104793653D01*
G37*
%TD*%
%TO.C,D73*%
G36*
X117762917Y-97655385D02*
G01*
X116637083Y-98305385D01*
X115887083Y-97006347D01*
X117012917Y-96356347D01*
X117762917Y-97655385D01*
G37*
G36*
X119112917Y-99993653D02*
G01*
X117987083Y-100643653D01*
X117237083Y-99344615D01*
X118362917Y-98694615D01*
X119112917Y-99993653D01*
G37*
%TD*%
%TO.C,D72*%
G36*
X115962917Y-92455385D02*
G01*
X114837083Y-93105385D01*
X114087083Y-91806347D01*
X115212917Y-91156347D01*
X115962917Y-92455385D01*
G37*
G36*
X117312917Y-94793653D02*
G01*
X116187083Y-95443653D01*
X115437083Y-94144615D01*
X116562917Y-93494615D01*
X117312917Y-94793653D01*
G37*
%TD*%
D10*
%TO.C,D71*%
X115750000Y-88200000D03*
X113050000Y-88200000D03*
%TD*%
D11*
%TO.C,D68*%
G36*
X142199820Y-81958934D02*
G01*
X140904767Y-81845632D01*
X141035500Y-80351340D01*
X142330553Y-80464642D01*
X142199820Y-81958934D01*
G37*
G36*
X141964500Y-84648660D02*
G01*
X140669447Y-84535358D01*
X140800180Y-83041066D01*
X142095233Y-83154368D01*
X141964500Y-84648660D01*
G37*
%TD*%
%TO.C,D67*%
G36*
X138410502Y-112178012D02*
G01*
X138855129Y-110956412D01*
X140264668Y-111469442D01*
X139820041Y-112691042D01*
X138410502Y-112178012D01*
G37*
G36*
X135873332Y-111254558D02*
G01*
X136317959Y-110032958D01*
X137727498Y-110545988D01*
X137282871Y-111767588D01*
X135873332Y-111254558D01*
G37*
%TD*%
%TO.C,D66*%
G36*
X139191502Y-109116012D02*
G01*
X139636129Y-107894412D01*
X141045668Y-108407442D01*
X140601041Y-109629042D01*
X139191502Y-109116012D01*
G37*
G36*
X136654332Y-108192558D02*
G01*
X137098959Y-106970958D01*
X138508498Y-107483988D01*
X138063871Y-108705588D01*
X136654332Y-108192558D01*
G37*
%TD*%
D10*
%TO.C,D65*%
X141050000Y-105400000D03*
X138350000Y-105400000D03*
%TD*%
D11*
%TO.C,D64*%
G36*
X140941502Y-103116012D02*
G01*
X141386129Y-101894412D01*
X142795668Y-102407442D01*
X142351041Y-103629042D01*
X140941502Y-103116012D01*
G37*
G36*
X138404332Y-102192558D02*
G01*
X138848959Y-100970958D01*
X140258498Y-101483988D01*
X139813871Y-102705588D01*
X138404332Y-102192558D01*
G37*
%TD*%
%TO.C,D63*%
G36*
X141491502Y-100016012D02*
G01*
X141936129Y-98794412D01*
X143345668Y-99307442D01*
X142901041Y-100529042D01*
X141491502Y-100016012D01*
G37*
G36*
X138954332Y-99092558D02*
G01*
X139398959Y-97870958D01*
X140808498Y-98383988D01*
X140363871Y-99605588D01*
X138954332Y-99092558D01*
G37*
%TD*%
%TO.C,D62*%
G36*
X142341502Y-97116012D02*
G01*
X142786129Y-95894412D01*
X144195668Y-96407442D01*
X143751041Y-97629042D01*
X142341502Y-97116012D01*
G37*
G36*
X139804332Y-96192558D02*
G01*
X140248959Y-94970958D01*
X141658498Y-95483988D01*
X141213871Y-96705588D01*
X139804332Y-96192558D01*
G37*
%TD*%
%TO.C,D61*%
G36*
X142941502Y-93316012D02*
G01*
X143386129Y-92094412D01*
X144795668Y-92607442D01*
X144351041Y-93829042D01*
X142941502Y-93316012D01*
G37*
G36*
X140404332Y-92392558D02*
G01*
X140848959Y-91170958D01*
X142258498Y-91683988D01*
X141813871Y-92905588D01*
X140404332Y-92392558D01*
G37*
%TD*%
%TO.C,D58*%
G36*
X120062917Y-113355385D02*
G01*
X118937083Y-114005385D01*
X118187083Y-112706347D01*
X119312917Y-112056347D01*
X120062917Y-113355385D01*
G37*
G36*
X121412917Y-115693653D02*
G01*
X120287083Y-116343653D01*
X119537083Y-115044615D01*
X120662917Y-114394615D01*
X121412917Y-115693653D01*
G37*
%TD*%
%TO.C,D57*%
G36*
X143337917Y-113736385D02*
G01*
X142212083Y-113086385D01*
X142962083Y-111787347D01*
X144087917Y-112437347D01*
X143337917Y-113736385D01*
G37*
G36*
X141987917Y-116074653D02*
G01*
X140862083Y-115424653D01*
X141612083Y-114125615D01*
X142737917Y-114775615D01*
X141987917Y-116074653D01*
G37*
%TD*%
%TO.C,D56*%
G36*
X137972987Y-115442810D02*
G01*
X137172627Y-114418396D01*
X138354643Y-113494904D01*
X139155003Y-114519318D01*
X137972987Y-115442810D01*
G37*
G36*
X135845357Y-117105096D02*
G01*
X135044997Y-116080682D01*
X136227013Y-115157190D01*
X137027373Y-116181604D01*
X135845357Y-117105096D01*
G37*
%TD*%
%TO.C,D55*%
G36*
X139744615Y-119162917D02*
G01*
X139094615Y-118037083D01*
X140393653Y-117287083D01*
X141043653Y-118412917D01*
X139744615Y-119162917D01*
G37*
G36*
X137406347Y-120512917D02*
G01*
X136756347Y-119387083D01*
X138055385Y-118637083D01*
X138705385Y-119762917D01*
X137406347Y-120512917D01*
G37*
%TD*%
D10*
%TO.C,D54*%
X129950000Y-83500000D03*
X127250000Y-83500000D03*
%TD*%
%TO.C,D53*%
X129550000Y-85900000D03*
X126850000Y-85900000D03*
%TD*%
%TO.C,D52*%
X129650000Y-88300000D03*
X126950000Y-88300000D03*
%TD*%
D11*
%TO.C,D51*%
G36*
X129186129Y-91705588D02*
G01*
X128741502Y-90483988D01*
X130151041Y-89970958D01*
X130595668Y-91192558D01*
X129186129Y-91705588D01*
G37*
G36*
X126648959Y-92629042D02*
G01*
X126204332Y-91407442D01*
X127613871Y-90894412D01*
X128058498Y-92116012D01*
X126648959Y-92629042D01*
G37*
%TD*%
D10*
%TO.C,D48*%
X129050000Y-95200000D03*
X126350000Y-95200000D03*
%TD*%
D11*
%TO.C,D47*%
G36*
X130977439Y-98512257D02*
G01*
X130141815Y-97516399D01*
X131290881Y-96552217D01*
X132126505Y-97548075D01*
X130977439Y-98512257D01*
G37*
G36*
X128909119Y-100247783D02*
G01*
X128073495Y-99251925D01*
X129222561Y-98287743D01*
X130058185Y-99283601D01*
X128909119Y-100247783D01*
G37*
%TD*%
%TO.C,D46*%
G36*
X133744615Y-100662917D02*
G01*
X133094615Y-99537083D01*
X134393653Y-98787083D01*
X135043653Y-99912917D01*
X133744615Y-100662917D01*
G37*
G36*
X131406347Y-102012917D02*
G01*
X130756347Y-100887083D01*
X132055385Y-100137083D01*
X132705385Y-101262917D01*
X131406347Y-102012917D01*
G37*
%TD*%
%TO.C,D45*%
G36*
X136437917Y-101524385D02*
G01*
X135312083Y-102174385D01*
X134562083Y-100875347D01*
X135687917Y-100225347D01*
X136437917Y-101524385D01*
G37*
G36*
X137787917Y-103862653D02*
G01*
X136662083Y-104512653D01*
X135912083Y-103213615D01*
X137037917Y-102563615D01*
X137787917Y-103862653D01*
G37*
%TD*%
%TO.C,D44*%
G36*
X134810314Y-105450987D02*
G01*
X133530064Y-105225244D01*
X133790536Y-103748033D01*
X135070786Y-103973776D01*
X134810314Y-105450987D01*
G37*
G36*
X134341464Y-108109967D02*
G01*
X133061214Y-107884224D01*
X133321686Y-106407013D01*
X134601936Y-106632756D01*
X134341464Y-108109967D01*
G37*
%TD*%
%TO.C,D43*%
G36*
X129196244Y-105364064D02*
G01*
X129421987Y-106644314D01*
X127944776Y-106904786D01*
X127719033Y-105624536D01*
X129196244Y-105364064D01*
G37*
G36*
X131855224Y-104895214D02*
G01*
X132080967Y-106175464D01*
X130603756Y-106435936D01*
X130378013Y-105155686D01*
X131855224Y-104895214D01*
G37*
%TD*%
%TO.C,D42*%
G36*
X126605588Y-106313871D02*
G01*
X125383988Y-106758498D01*
X124870958Y-105348959D01*
X126092558Y-104904332D01*
X126605588Y-106313871D01*
G37*
G36*
X127529042Y-108851041D02*
G01*
X126307442Y-109295668D01*
X125794412Y-107886129D01*
X127016012Y-107441502D01*
X127529042Y-108851041D01*
G37*
%TD*%
%TO.C,D41*%
G36*
X130844615Y-109862917D02*
G01*
X130194615Y-108737083D01*
X131493653Y-107987083D01*
X132143653Y-109112917D01*
X130844615Y-109862917D01*
G37*
G36*
X128506347Y-111212917D02*
G01*
X127856347Y-110087083D01*
X129155385Y-109337083D01*
X129805385Y-110462917D01*
X128506347Y-111212917D01*
G37*
%TD*%
D12*
%TO.C,D38*%
X130400000Y-118250000D03*
X130400000Y-120950000D03*
%TD*%
D11*
%TO.C,D37*%
G36*
X136035355Y-122116117D02*
G01*
X135116117Y-123035355D01*
X134055457Y-121974695D01*
X134974695Y-121055457D01*
X136035355Y-122116117D01*
G37*
G36*
X137944543Y-124025305D02*
G01*
X137025305Y-124944543D01*
X135964645Y-123883883D01*
X136883883Y-122964645D01*
X137944543Y-124025305D01*
G37*
%TD*%
%TO.C,D36*%
G36*
X132535355Y-123316117D02*
G01*
X131616117Y-124235355D01*
X130555457Y-123174695D01*
X131474695Y-122255457D01*
X132535355Y-123316117D01*
G37*
G36*
X134444543Y-125225305D02*
G01*
X133525305Y-126144543D01*
X132464645Y-125083883D01*
X133383883Y-124164645D01*
X134444543Y-125225305D01*
G37*
%TD*%
%TO.C,D35*%
G36*
X128735355Y-125416117D02*
G01*
X127816117Y-126335355D01*
X126755457Y-125274695D01*
X127674695Y-124355457D01*
X128735355Y-125416117D01*
G37*
G36*
X130644543Y-127325305D02*
G01*
X129725305Y-128244543D01*
X128664645Y-127183883D01*
X129583883Y-126264645D01*
X130644543Y-127325305D01*
G37*
%TD*%
%TO.C,D34*%
G36*
X121235936Y-79696244D02*
G01*
X119955686Y-79921987D01*
X119695214Y-78444776D01*
X120975464Y-78219033D01*
X121235936Y-79696244D01*
G37*
G36*
X121704786Y-82355224D02*
G01*
X120424536Y-82580967D01*
X120164064Y-81103756D01*
X121444314Y-80878013D01*
X121704786Y-82355224D01*
G37*
%TD*%
%TO.C,D33*%
G36*
X124101936Y-79196244D02*
G01*
X122821686Y-79421987D01*
X122561214Y-77944776D01*
X123841464Y-77719033D01*
X124101936Y-79196244D01*
G37*
G36*
X124570786Y-81855224D02*
G01*
X123290536Y-82080967D01*
X123030064Y-80603756D01*
X124310314Y-80378013D01*
X124570786Y-81855224D01*
G37*
%TD*%
%TO.C,D32*%
G36*
X123503756Y-85535936D02*
G01*
X123278013Y-84255686D01*
X124755224Y-83995214D01*
X124980967Y-85275464D01*
X123503756Y-85535936D01*
G37*
G36*
X120844776Y-86004786D02*
G01*
X120619033Y-84724536D01*
X122096244Y-84464064D01*
X122321987Y-85744314D01*
X120844776Y-86004786D01*
G37*
%TD*%
%TO.C,D31*%
G36*
X124635936Y-89796244D02*
G01*
X123355686Y-90021987D01*
X123095214Y-88544776D01*
X124375464Y-88319033D01*
X124635936Y-89796244D01*
G37*
G36*
X125104786Y-92455224D02*
G01*
X123824536Y-92680967D01*
X123564064Y-91203756D01*
X124844314Y-90978013D01*
X125104786Y-92455224D01*
G37*
%TD*%
D12*
%TO.C,D28*%
X112500000Y-126050000D03*
X112500000Y-128750000D03*
%TD*%
D11*
%TO.C,D27*%
G36*
X131693588Y-73445271D02*
G01*
X130471988Y-73889898D01*
X129958958Y-72480359D01*
X131180558Y-72035732D01*
X131693588Y-73445271D01*
G37*
G36*
X132617042Y-75982441D02*
G01*
X131395442Y-76427068D01*
X130882412Y-75017529D01*
X132104012Y-74572902D01*
X132617042Y-75982441D01*
G37*
%TD*%
%TO.C,D26*%
G36*
X132785936Y-61796244D02*
G01*
X131505686Y-62021987D01*
X131245214Y-60544776D01*
X132525464Y-60319033D01*
X132785936Y-61796244D01*
G37*
G36*
X133254786Y-64455224D02*
G01*
X131974536Y-64680967D01*
X131714064Y-63203756D01*
X132994314Y-62978013D01*
X133254786Y-64455224D01*
G37*
%TD*%
%TO.C,D25*%
G36*
X130785936Y-61696244D02*
G01*
X129505686Y-61921987D01*
X129245214Y-60444776D01*
X130525464Y-60219033D01*
X130785936Y-61696244D01*
G37*
G36*
X131254786Y-64355224D02*
G01*
X129974536Y-64580967D01*
X129714064Y-63103756D01*
X130994314Y-62878013D01*
X131254786Y-64355224D01*
G37*
%TD*%
%TO.C,D24*%
G36*
X128785936Y-61946244D02*
G01*
X127505686Y-62171987D01*
X127245214Y-60694776D01*
X128525464Y-60469033D01*
X128785936Y-61946244D01*
G37*
G36*
X129254786Y-64605224D02*
G01*
X127974536Y-64830967D01*
X127714064Y-63353756D01*
X128994314Y-63128013D01*
X129254786Y-64605224D01*
G37*
%TD*%
%TO.C,D23*%
G36*
X127019936Y-62375744D02*
G01*
X125739686Y-62601487D01*
X125479214Y-61124276D01*
X126759464Y-60898533D01*
X127019936Y-62375744D01*
G37*
G36*
X127488786Y-65034724D02*
G01*
X126208536Y-65260467D01*
X125948064Y-63783256D01*
X127228314Y-63557513D01*
X127488786Y-65034724D01*
G37*
%TD*%
%TO.C,D22*%
G36*
X125285936Y-63296244D02*
G01*
X124005686Y-63521987D01*
X123745214Y-62044776D01*
X125025464Y-61819033D01*
X125285936Y-63296244D01*
G37*
G36*
X125754786Y-65955224D02*
G01*
X124474536Y-66180967D01*
X124214064Y-64703756D01*
X125494314Y-64478013D01*
X125754786Y-65955224D01*
G37*
%TD*%
%TO.C,D21*%
G36*
X128453756Y-59785936D02*
G01*
X128228013Y-58505686D01*
X129705224Y-58245214D01*
X129930967Y-59525464D01*
X128453756Y-59785936D01*
G37*
G36*
X125794776Y-60254786D02*
G01*
X125569033Y-58974536D01*
X127046244Y-58714064D01*
X127271987Y-59994314D01*
X125794776Y-60254786D01*
G37*
%TD*%
%TO.C,D18*%
G36*
X141883883Y-131685355D02*
G01*
X140964645Y-130766117D01*
X142025305Y-129705457D01*
X142944543Y-130624695D01*
X141883883Y-131685355D01*
G37*
G36*
X139974695Y-133594543D02*
G01*
X139055457Y-132675305D01*
X140116117Y-131614645D01*
X141035355Y-132533883D01*
X139974695Y-133594543D01*
G37*
%TD*%
%TO.C,D17*%
G36*
X138285355Y-128366117D02*
G01*
X137366117Y-129285355D01*
X136305457Y-128224695D01*
X137224695Y-127305457D01*
X138285355Y-128366117D01*
G37*
G36*
X140194543Y-130275305D02*
G01*
X139275305Y-131194543D01*
X138214645Y-130133883D01*
X139133883Y-129214645D01*
X140194543Y-130275305D01*
G37*
%TD*%
%TO.C,D16*%
G36*
X136535355Y-131116117D02*
G01*
X135616117Y-132035355D01*
X134555457Y-130974695D01*
X135474695Y-130055457D01*
X136535355Y-131116117D01*
G37*
G36*
X138444543Y-133025305D02*
G01*
X137525305Y-133944543D01*
X136464645Y-132883883D01*
X137383883Y-131964645D01*
X138444543Y-133025305D01*
G37*
%TD*%
%TO.C,D15*%
G36*
X134535355Y-132866117D02*
G01*
X133616117Y-133785355D01*
X132555457Y-132724695D01*
X133474695Y-131805457D01*
X134535355Y-132866117D01*
G37*
G36*
X136444543Y-134775305D02*
G01*
X135525305Y-135694543D01*
X134464645Y-134633883D01*
X135383883Y-133714645D01*
X136444543Y-134775305D01*
G37*
%TD*%
D12*
%TO.C,D14*%
X131250000Y-133400000D03*
X131250000Y-136100000D03*
%TD*%
D11*
%TO.C,D13*%
G36*
X128883883Y-133785355D02*
G01*
X127964645Y-132866117D01*
X129025305Y-131805457D01*
X129944543Y-132724695D01*
X128883883Y-133785355D01*
G37*
G36*
X126974695Y-135694543D02*
G01*
X126055457Y-134775305D01*
X127116117Y-133714645D01*
X128035355Y-134633883D01*
X126974695Y-135694543D01*
G37*
%TD*%
%TO.C,D12*%
G36*
X126383883Y-131785355D02*
G01*
X125464645Y-130866117D01*
X126525305Y-129805457D01*
X127444543Y-130724695D01*
X126383883Y-131785355D01*
G37*
G36*
X124474695Y-133694543D02*
G01*
X123555457Y-132775305D01*
X124616117Y-131714645D01*
X125535355Y-132633883D01*
X124474695Y-133694543D01*
G37*
%TD*%
%TO.C,D11*%
G36*
X124633883Y-129285355D02*
G01*
X123714645Y-128366117D01*
X124775305Y-127305457D01*
X125694543Y-128224695D01*
X124633883Y-129285355D01*
G37*
G36*
X122724695Y-131194543D02*
G01*
X121805457Y-130275305D01*
X122866117Y-129214645D01*
X123785355Y-130133883D01*
X122724695Y-131194543D01*
G37*
%TD*%
M02*
